<?xml version="1.0" encoding="UTF-8" standalone="no"?>
<!-- Created with Inkscape (http://www.inkscape.org/) -->

<svg
   xmlns:dc="http://purl.org/dc/elements/1.1/"
   xmlns:cc="http://creativecommons.org/ns#"
   xmlns:rdf="http://www.w3.org/1999/02/22-rdf-syntax-ns#"
   xmlns:svg="http://www.w3.org/2000/svg"
   xmlns="http://www.w3.org/2000/svg"
   xmlns:sodipodi="http://sodipodi.sourceforge.net/DTD/sodipodi-0.dtd"
   xmlns:inkscape="http://www.inkscape.org/namespaces/inkscape"
   width="145mm"
   height="50mm"
   viewBox="0 0 145 50"
   version="1.1"
   id="svg8"
   inkscape:version="0.92.3 (2405546, 2018-03-11)"
   sodipodi:docname="kap2_view_elements_strategies.svg">
  <defs
     id="defs2" />
  <sodipodi:namedview
     id="base"
     pagecolor="#ffffff"
     bordercolor="#666666"
     borderopacity="1.0"
     inkscape:pageopacity="0.0"
     inkscape:pageshadow="2"
     inkscape:zoom="2"
     inkscape:cx="297.43078"
     inkscape:cy="103.36061"
     inkscape:document-units="mm"
     inkscape:current-layer="layer1"
     showgrid="false"
     inkscape:window-width="1856"
     inkscape:window-height="1057"
     inkscape:window-x="56"
     inkscape:window-y="1072"
     inkscape:window-maximized="1" />
  <metadata
     id="metadata5">
    <rdf:RDF>
      <cc:Work
         rdf:about="">
        <dc:format>image/svg+xml</dc:format>
        <dc:type
           rdf:resource="http://purl.org/dc/dcmitype/StillImage" />
        <dc:title></dc:title>
      </cc:Work>
    </rdf:RDF>
  </metadata>
  <g
     inkscape:label="Layer 1"
     inkscape:groupmode="layer"
     id="layer1"
     transform="translate(0,-247)">
    <path
       style="fill:none;stroke:#000000;stroke-width:0.26458332px;stroke-linecap:butt;stroke-linejoin:miter;stroke-opacity:1"
       d="m 10.531768,288.47806 50.971431,0.003"
       id="path815-4-4-7"
       inkscape:connector-curvature="0"
       sodipodi:nodetypes="cc" />
    <path
       style="fill:none;stroke:#000000;stroke-width:0.26458332px;stroke-linecap:butt;stroke-linejoin:miter;stroke-opacity:1"
       d="M 16.457216,290.65293 42.584821,253.11516"
       id="path832-1-3"
       inkscape:connector-curvature="0"
       sodipodi:nodetypes="cc" />
    <path
       style="fill:none;stroke:#000000;stroke-width:0.26458332px;stroke-linecap:butt;stroke-linejoin:miter;stroke-opacity:1"
       d="m 73.560425,288.44238 50.971425,0.003"
       id="path815-4-4-7-7"
       inkscape:connector-curvature="0"
       sodipodi:nodetypes="cc" />
    <path
       style="fill:none;stroke:#000000;stroke-width:0.26458332px;stroke-linecap:butt;stroke-linejoin:miter;stroke-opacity:1"
       d="M 79.485872,290.61726 105.61347,253.07949"
       id="path832-1-3-1"
       inkscape:connector-curvature="0"
       sodipodi:nodetypes="cc" />
    <text
       xml:space="preserve"
       style="font-style:normal;font-variant:normal;font-weight:normal;font-stretch:normal;font-size:19.75555611px;line-height:1.25;font-family:Arial;-inkscape-font-specification:'Arial, Normal';font-variant-ligatures:normal;font-variant-caps:normal;font-variant-numeric:normal;font-feature-settings:normal;text-align:start;letter-spacing:0px;word-spacing:0px;writing-mode:lr-tb;text-anchor:start;fill:#000000;fill-opacity:1;stroke:none;stroke-width:0.26458332"
       x="29.233053"
       y="287.5621"
       id="text1044"><tspan
         sodipodi:role="line"
         id="tspan1042"
         x="29.233053"
         y="287.5621"
         style="font-style:normal;font-variant:normal;font-weight:normal;font-stretch:normal;font-size:19.75555611px;font-family:Arial;-inkscape-font-specification:'Arial, Normal';font-variant-ligatures:normal;font-variant-caps:normal;font-variant-numeric:normal;font-feature-settings:normal;text-align:start;writing-mode:lr-tb;text-anchor:start;stroke-width:0.26458332">1</tspan></text>
    <rect
       style="opacity:1;fill:none;fill-opacity:1;fill-rule:evenodd;stroke:#ff0000;stroke-width:0.25340465;stroke-linecap:round;stroke-miterlimit:4;stroke-dasharray:none;stroke-dashoffset:0;stroke-opacity:1;paint-order:stroke fill markers"
       id="rect1046"
       width="10.016369"
       height="15.497024"
       x="29.304619"
       y="272.7265" />
    <text
       xml:space="preserve"
       style="font-style:normal;font-variant:normal;font-weight:normal;font-stretch:normal;font-size:19.75555611px;line-height:1.25;font-family:Arial;-inkscape-font-specification:'Arial, Normal';font-variant-ligatures:normal;font-variant-caps:normal;font-variant-numeric:normal;font-feature-settings:normal;text-align:start;letter-spacing:0px;word-spacing:0px;writing-mode:lr-tb;text-anchor:start;fill:#000000;fill-opacity:1;stroke:none;stroke-width:0.26458332"
       x="92.370567"
       y="287.41791"
       id="text1044-1"><tspan
         sodipodi:role="line"
         id="tspan1042-6"
         x="92.370567"
         y="287.41791"
         style="font-style:normal;font-variant:normal;font-weight:normal;font-stretch:normal;font-size:19.75555611px;font-family:Arial;-inkscape-font-specification:'Arial, Normal';font-variant-ligatures:normal;font-variant-caps:normal;font-variant-numeric:normal;font-feature-settings:normal;text-align:start;writing-mode:lr-tb;text-anchor:start;stroke-width:0.26458332">1</tspan></text>
    <rect
       style="opacity:1;fill:none;fill-opacity:1;fill-rule:evenodd;stroke:#ff0000;stroke-width:0.25077486;stroke-linecap:round;stroke-miterlimit:4;stroke-dasharray:none;stroke-dashoffset:0;stroke-opacity:1;paint-order:stroke fill markers"
       id="rect1046-5"
       width="10.018999"
       height="15.173059"
       x="92.705734"
       y="272.76868" />
    <path
       inkscape:connector-curvature="0"
       style="fill:#000000;fill-opacity:1;fill-rule:nonzero;stroke:none;stroke-width:1.94027758"
       d="m 109.86904,280.65951 c -0.54571,0 -1.00046,0.18205 -1.39458,0.57602 -0.36377,0.39435 -0.57602,0.87917 -0.57602,1.48555 0,0.51535 0.21224,0.97014 0.60633,1.36422 0.36383,0.39435 0.81857,0.57601 1.30363,0.57601 0.60634,0 1.09141,-0.1815 1.45521,-0.57601 0.36383,-0.39435 0.57601,-0.84887 0.60634,-1.42489 -0.0302,-0.57601 -0.21225,-1.03075 -0.54571,-1.42488 -0.36383,-0.3641 -0.84887,-0.57602 -1.4552,-0.57602 z m 5.9421,-0.84887 c 0,0.39435 -0.0606,0.66699 -0.18178,0.78826 -0.12127,0.1518 -0.42443,0.2123 -0.97014,0.2123 h -0.12127 c -0.60634,0 -1.00046,-0.0913 -1.21268,-0.24255 -0.24255,-0.0907 -0.36382,-0.39435 -0.36382,-0.81851 0.27285,0.0605 0.54571,0.121 0.78824,0.121 0.27285,0 0.60633,0.033 1.06108,0.0605 0.18183,0 0.36382,0 0.5154,-0.0605 0.091,0 0.24255,0 0.48505,-0.0605 z m -7.1851,-0.4851 c 0.12127,0 0.30316,0 0.57603,0 0.18177,0 0.39413,-0.033 0.60633,-0.0605 0.091,0 0.36383,0.0275 0.75792,0.0605 0.30316,0 0.5154,0 0.63666,0 l 0.30316,-0.81856 c -0.21225,-0.0908 -0.48505,-0.1518 -0.81857,-0.1518 -0.21219,-0.0908 -0.48504,-0.12155 -0.87917,-0.12155 -0.18183,0 -0.42444,0.033 -0.66698,0.12155 -0.18183,0 -0.48504,0.0605 -0.87919,0.1518 z m -4.66879,0.4851 c 0.0606,0.0605 0.27285,0.0605 0.60633,0.0605 0.12128,0 0.24255,0.033 0.42444,0.0605 -0.12128,0 0.21224,0 1.0611,-0.0605 0.21219,0 0.48504,-0.0605 0.78823,-0.12155 0,0.4246 -0.091,0.69729 -0.27285,0.81851 -0.24255,0.1518 -0.69728,0.24255 -1.42488,0.24255 h -0.0303 c -0.51535,0 -0.84888,-0.0605 -0.97014,-0.1518 -0.0606,-0.15125 -0.15153,-0.39435 -0.18183,-0.84887 z m 1.21267,7.27606 c -0.15153,0 -0.24255,-0.033 -0.27286,-0.0913 -0.0605,-0.0605 -0.091,-0.24255 -0.12127,-0.51535 v -1.03081 l 1.90995,-3.75925 1.18236,-1.60682 v -1.4855 c -0.30316,0.033 -0.5154,0.12155 -0.69729,0.2728 -0.0606,0.0605 -0.12128,0.24255 -0.21219,0.57607 -0.091,0.0605 -0.36383,0.121 -0.75794,0.2123 -0.27285,0 -0.69727,0 -1.30361,0.0275 -0.18178,0 -0.48505,-0.0275 -0.93983,-0.0908 0,-1.48555 0.36383,-2.42533 1.03077,-2.81946 1.09141,-0.66699 2.72852,-1.00045 4.88102,-1.03076 1.00045,0 1.97058,0.12155 2.91042,0.3333 0.87918,0.12155 1.54615,0.36355 2.03122,0.69729 0.33352,0.2728 0.60634,0.60632 0.75793,0.97015 0.18183,0.39435 0.24255,1.03075 0.24255,1.84932 -0.18178,0.033 -0.33352,0.0605 -0.45474,0.0605 -0.091,0 -0.24255,0 -0.48505,0.033 -0.51535,0 -0.9095,-0.033 -1.21267,-0.033 -0.21219,-0.033 -0.48504,-0.0908 -0.81854,-0.2123 -0.0303,-0.30305 -0.12128,-0.51535 -0.27286,-0.57602 -0.15152,-0.1518 -0.39413,-0.24255 -0.66697,-0.2728 l 0.0605,1.48555 1.27331,1.60677 1.81901,3.75931 -0.0605,1.03075 c 0,0.2728 -0.0303,0.4851 -0.0303,0.5456 -0.0302,0.033 -0.12128,0.0605 -0.24255,0.0605 z m 0,0"
       id="path2719" />
    <rect
       style="opacity:1;fill:none;fill-opacity:1;fill-rule:evenodd;stroke:#aad400;stroke-width:0.24446446;stroke-linecap:round;stroke-miterlimit:4;stroke-dasharray:none;stroke-dashoffset:0;stroke-opacity:1;paint-order:stroke fill markers"
       id="rect3865"
       width="13.85721"
       height="15.18486"
       x="102.97"
       y="272.75867" />
    <rect
       style="opacity:1;fill:none;fill-opacity:1;fill-rule:evenodd;stroke:#0000ff;stroke-width:0.25359929;stroke-linecap:round;stroke-miterlimit:4;stroke-dasharray:none;stroke-dashoffset:0;stroke-opacity:1;paint-order:stroke fill markers"
       id="rect3867"
       width="24.620239"
       height="15.681366"
       x="92.453804"
       y="272.5144" />
  </g>
</svg>
