<?xml version="1.0" encoding="UTF-8" standalone="no"?>
<!-- Created with Inkscape (http://www.inkscape.org/) -->

<svg
   xmlns:dc="http://purl.org/dc/elements/1.1/"
   xmlns:cc="http://creativecommons.org/ns#"
   xmlns:rdf="http://www.w3.org/1999/02/22-rdf-syntax-ns#"
   xmlns:svg="http://www.w3.org/2000/svg"
   xmlns="http://www.w3.org/2000/svg"
   xmlns:sodipodi="http://sodipodi.sourceforge.net/DTD/sodipodi-0.dtd"
   xmlns:inkscape="http://www.inkscape.org/namespaces/inkscape"
   version="1.1"
   id="svg815"
   xml:space="preserve"
   width="548.03149"
   height="188.97638"
   viewBox="0 0 548.03149 188.97638"
   sodipodi:docname="vertical_resize_proportional.svg"
   inkscape:version="0.92.4 (5da689c313, 2019-01-14)"><metadata
     id="metadata821"><rdf:RDF><cc:Work
         rdf:about=""><dc:format>image/svg+xml</dc:format><dc:type
           rdf:resource="http://purl.org/dc/dcmitype/StillImage" /><dc:title></dc:title></cc:Work></rdf:RDF></metadata><defs
     id="defs819"><clipPath
       clipPathUnits="userSpaceOnUse"
       id="clipPath837"><path
         d="m 23.842865,252.6017 h 29.325882 v 36.58543 H 23.842865 Z"
         id="path835"
         inkscape:connector-curvature="0" /></clipPath><linearGradient
       x1="24.115049"
       y1="270.89438"
       x2="52.914516"
       y2="270.89438"
       gradientUnits="userSpaceOnUse"
       spreadMethod="pad"
       id="linearGradient843"><stop
         style="stop-opacity:1;stop-color:#ffffff"
         offset="0"
         id="stop839" /><stop
         style="stop-opacity:0;stop-color:#ffffff"
         offset="1"
         id="stop841" /></linearGradient><mask
       maskUnits="userSpaceOnUse"
       x="0"
       y="0"
       width="1"
       height="1"
       id="mask845"><g
         id="g851"><g
           clip-path="url(#clipPath837)"
           id="g849"><path
             d="m 23.842865,252.6017 h 29.325882 v 36.58543 H 23.842865 Z"
             style="fill:url(#linearGradient843);stroke:none"
             id="path847"
             inkscape:connector-curvature="0" /></g></g></mask><linearGradient
       x1="24.115049"
       y1="270.89438"
       x2="52.914516"
       y2="270.89438"
       gradientUnits="userSpaceOnUse"
       gradientTransform="matrix(1.398082,0,0,1.393998,0.665711,-265.12624)"
       spreadMethod="pad"
       id="linearGradient869"><stop
         style="stop-opacity:1;stop-color:#ffffff"
         offset="0"
         id="stop865" /><stop
         style="stop-opacity:1;stop-color:#ffffff"
         offset="1"
         id="stop867" /></linearGradient></defs><sodipodi:namedview
     pagecolor="#ffffff"
     bordercolor="#666666"
     borderopacity="1"
     objecttolerance="10"
     gridtolerance="10"
     guidetolerance="10"
     inkscape:pageopacity="0"
     inkscape:pageshadow="2"
     inkscape:window-width="1856"
     inkscape:window-height="1057"
     id="namedview817"
     showgrid="false"
     inkscape:zoom="2.5363506"
     inkscape:cx="271.99473"
     inkscape:cy="79.53337"
     inkscape:window-x="56"
     inkscape:window-y="-8"
     inkscape:window-maximized="1"
     inkscape:current-layer="g823" /><g
     id="g823"
     inkscape:groupmode="layer"
     inkscape:label="vertical_resize_proportional"
     transform="matrix(1.3333333,0,0,-1.3333333,0,188.97638)"><path
       inkscape:connector-curvature="0"
       id="path827"
       style="fill:#ffffff;fill-opacity:1;fill-rule:evenodd;stroke:#000000;stroke-width:1.41700006;stroke-linecap:round;stroke-linejoin:bevel;stroke-miterlimit:4;stroke-dasharray:none;stroke-opacity:1"
       d="M 34.449,135.83728 H 204.156 V 4.39228 H 34.449 Z" /><path
       inkscape:connector-curvature="0"
       id="path829"
       style="fill:none;stroke:#e39900;stroke-width:0.75;stroke-linecap:butt;stroke-linejoin:miter;stroke-miterlimit:4;stroke-dasharray:none;stroke-opacity:1"
       d="m 34.586,54.12728 c 168.812,-0.758 169.57,-0.758 169.57,-0.758" /><g
       transform="matrix(1.398082,0,0,-1.393998,0.665711,406.85852)"
       id="g831"><g
         id="g833" /><g
         mask="url(#mask845)"
         id="g853"><g
           transform="matrix(0.715266,0,0,0.717361,-0.47616,190.19126)"
           id="g855"><g
             id="g857"><g
               id="g863"><path
                 inkscape:connector-curvature="0"
                 id="path871"
                 style="fill:url(#linearGradient869);stroke:none"
                 d="M 34.668,137.34 C 74.652,87.789 74.277,87.789 74.277,87.789 Z" /></g></g></g></g></g><path
       inkscape:connector-curvature="0"
       id="path873"
       style="fill:none;stroke:#000000;stroke-width:0.74000001;stroke-linecap:round;stroke-linejoin:miter;stroke-miterlimit:4;stroke-dasharray:none;stroke-opacity:1"
       d="m 34.668,4.39228 c 39.984,49.551 39.609,49.551 39.609,49.551" /><path
       inkscape:connector-curvature="0"
       id="path875"
       style="fill:none;stroke:#000000;stroke-width:0.75099999;stroke-linecap:round;stroke-linejoin:miter;stroke-miterlimit:4;stroke-dasharray:none;stroke-opacity:1"
       d="m 108.625,53.88828 95.531,81.949"
       sodipodi:nodetypes="cc" /><path
       inkscape:connector-curvature="0"
       id="path877"
       style="fill:#000000;fill-opacity:1;fill-rule:nonzero;stroke:none"
       d="m 63.57,43.74028 h -4.328 v 0.812 h 1.656 v 5.36 h -1.656 v 0.734 c 0.219,0 0.457,0.016 0.719,0.047 0.258,0.039 0.453,0.098 0.578,0.172 0.164,0.094 0.297,0.207 0.391,0.344 0.093,0.132 0.148,0.32 0.172,0.562 h 0.828 v -7.219 h 1.64 z" /><path
       inkscape:connector-curvature="0"
       id="path879"
       style="fill:none;stroke:#000000;stroke-width:0.76599997;stroke-linecap:round;stroke-linejoin:miter;stroke-miterlimit:4;stroke-dasharray:none;stroke-opacity:1"
       d="m 74.277,53.94328 34.157,-0.195" /><path
       inkscape:connector-curvature="0"
       id="path881"
       style="fill:none;stroke:#000000;stroke-width:0.34099999;stroke-linecap:round;stroke-linejoin:bevel;stroke-miterlimit:4;stroke-dasharray:2.725, 2.725;stroke-dashoffset:0;stroke-opacity:1"
       d="m 28.941,136.13828 h 5.324 v -132 h -5.324 z" /><path
       inkscape:connector-curvature="0"
       id="path883"
       style="fill:#000000;fill-opacity:1;fill-rule:nonzero;stroke:none"
       d="m 11.363,64.49828 h -0.406 c -0.047,-0.266 -0.156,-0.969 -0.312,-1.094 -0.094,-0.078 -1.032,-0.078 -1.188,-0.078 H 7.238 c 1.266,1.125 1.688,1.453 2.407,2.015 0.89,0.719 1.718,1.453 1.718,2.594 0,1.453 -1.281,2.344 -2.812,2.344 -1.485,0 -2.5,-1.047 -2.5,-2.156 0,-0.61 0.515,-0.672 0.64,-0.672 0.297,0 0.641,0.218 0.641,0.64 0,0.219 -0.094,0.641 -0.719,0.641 0.375,0.844 1.203,1.109 1.766,1.109 1.187,0 1.812,-0.937 1.812,-1.906 0,-1.047 -0.734,-1.875 -1.125,-2.297 l -2.89,-2.859 c -0.125,-0.11 -0.125,-0.125 -0.125,-0.469 h 4.953 z" /><path
       inkscape:connector-curvature="0"
       id="path885"
       style="fill:#000000;fill-opacity:1;fill-rule:nonzero;stroke:none"
       d="m 18.184,64.71628 c 0,1.36 -1.032,2.61 -2.516,2.61 -0.531,0 -1.156,-0.125 -1.688,-0.594 v 2.281 c 0.61,-0.156 0.969,-0.156 1.172,-0.156 1.578,0 2.516,1.078 2.516,1.25 0,0.141 -0.094,0.172 -0.141,0.172 0,0 -0.047,0 -0.109,-0.031 -0.281,-0.11 -0.922,-0.36 -1.813,-0.36 -0.328,0 -0.968,0.031 -1.75,0.328 -0.109,0.063 -0.156,0.063 -0.156,0.063 -0.156,0 -0.156,-0.125 -0.156,-0.328 v -3.532 c 0,-0.203 0,-0.359 0.203,-0.359 0.109,0 0.109,0.031 0.234,0.172 0.516,0.656 1.25,0.766 1.672,0.766 0.719,0 1.047,-0.579 1.094,-0.672 0.219,-0.407 0.297,-0.86 0.297,-1.563 0,-0.359 0,-1.062 -0.359,-1.594 -0.297,-0.421 -0.813,-0.718 -1.407,-0.718 -0.781,0 -1.578,0.437 -1.89,1.234 0.468,-0.047 0.687,0.25 0.687,0.578 0,0.516 -0.437,0.61 -0.594,0.61 0,0 -0.609,0 -0.609,-0.641 0,-1.078 0.984,-2.156 2.438,-2.156 1.531,0 2.875,1.14 2.875,2.64 z" /><path
       inkscape:connector-curvature="0"
       id="path887"
       style="fill:#000000;fill-opacity:1;fill-rule:nonzero;stroke:none"
       d="m 25.129,66.13828 c 0,1.313 -0.156,2.266 -0.703,3.11 -0.375,0.546 -1.11,1.031 -2.078,1.031 -2.782,0 -2.782,-3.281 -2.782,-4.141 0,-0.859 0,-4.062 2.782,-4.062 2.781,0 2.781,3.203 2.781,4.062 z m -1.094,0.156 c 0,-0.89 0,-1.781 -0.156,-2.531 -0.234,-1.094 -1.047,-1.359 -1.531,-1.359 -0.547,0 -1.282,0.328 -1.516,1.312 -0.172,0.703 -0.172,1.688 -0.172,2.578 0,0.875 0,1.782 0.172,2.454 0.25,0.937 1.031,1.187 1.516,1.187 0.656,0 1.281,-0.391 1.484,-1.078 0.203,-0.656 0.203,-1.516 0.203,-2.563 z" /><path
       inkscape:connector-curvature="0"
       id="path889"
       style="fill:#ffffff;fill-opacity:1;fill-rule:evenodd;stroke:#000000;stroke-width:1.14900005;stroke-linecap:round;stroke-linejoin:bevel;stroke-miterlimit:4;stroke-dasharray:none;stroke-opacity:1"
       d="m 206.391,114.38028 h 169.973 v -86.258 H 206.391 Z" /><path
       inkscape:connector-curvature="0"
       id="path891"
       style="fill:none;stroke:#e39900;stroke-width:0.75;stroke-linecap:butt;stroke-linejoin:miter;stroke-miterlimit:4;stroke-dasharray:none;stroke-opacity:1"
       d="m 206.754,61.77928 c 168.812,-0.758 169.57,-0.758 169.57,-0.758" /><path
       inkscape:connector-curvature="0"
       id="path893"
       style="fill:#000000;fill-opacity:1;fill-rule:nonzero;stroke:none"
       d="m 233.5,52.57628 h -4.328 v 0.812 h 1.656 v 5.36 h -1.656 v 0.734 c 0.219,0 0.457,0.016 0.719,0.047 0.257,0.039 0.453,0.098 0.578,0.172 0.164,0.093 0.297,0.207 0.39,0.343 0.094,0.133 0.149,0.321 0.172,0.563 h 0.828 v -7.219 h 1.641 z" /><path
       inkscape:connector-curvature="0"
       id="path895"
       style="fill:none;stroke:#000000;stroke-width:0.76599997;stroke-linecap:round;stroke-linejoin:miter;stroke-miterlimit:4;stroke-dasharray:none;stroke-opacity:1"
       d="m 246.445,61.59528 34.157,-0.195" /><path
       inkscape:connector-curvature="0"
       id="path897"
       style="fill:none;stroke:#000000;stroke-width:0.241;stroke-linecap:round;stroke-linejoin:bevel;stroke-miterlimit:4;stroke-dasharray:1.929, 1.929;stroke-dashoffset:0;stroke-opacity:1"
       d="m 376.297,114.44728 h 4.07 v -86.426 h -4.07 z" /><path
       inkscape:connector-curvature="0"
       id="path905"
       style="fill:none;stroke:#000000;stroke-width:0.75;stroke-linecap:butt;stroke-linejoin:miter;stroke-miterlimit:4;stroke-dasharray:none;stroke-opacity:1"
       d="m 206.391,28.12328 40.054,33.472" /><path
       inkscape:connector-curvature="0"
       id="path907"
       style="fill:none;stroke:#000000;stroke-width:0.75;stroke-linecap:butt;stroke-linejoin:miter;stroke-miterlimit:4;stroke-dasharray:none;stroke-opacity:1"
       d="m 280.602,61.40028 95.761,52.98" /><text
       xml:space="preserve"
       style="font-style:normal;font-weight:normal;font-size:10px;line-height:1.25;font-family:sans-serif;letter-spacing:0px;word-spacing:0px;fill:#000000;fill-opacity:1;stroke:none;stroke-width:0.75"
       x="383.5235"
       y="-62.097099"
       id="text938"
       transform="scale(1,-1)"><tspan
         sodipodi:role="line"
         id="tspan936"
         x="383.5235"
         y="-62.097099"
         style="font-style:normal;font-variant:normal;font-weight:normal;font-stretch:normal;font-size:12px;font-family:'Latin Modern Roman';-inkscape-font-specification:'Latin Modern Roman, Normal';font-variant-ligatures:normal;font-variant-caps:normal;font-variant-numeric:normal;font-feature-settings:normal;text-align:start;writing-mode:lr-tb;text-anchor:start;stroke-width:0.75">160</tspan></text>
</g></svg>